<svg xmlns="http://www.w3.org/2000/svg" viewBox="0 0 14 14" height="48" width="48">
  <g>
    <path d="M5.66,9.3a1,1,0,0,0-1-.8H2.32a1,1,0,0,0-1,.8L.5,13.5h6Z" fill="none" stroke="#ffffff"
      stroke-linecap="round" stroke-linejoin="round"></path>
    <path d="M12.66,9.3a1,1,0,0,0-1-.8H9.32a1,1,0,0,0-1,.8L7.5,13.5h6Z" fill="none" stroke="#ffffff"
      stroke-linecap="round" stroke-linejoin="round"></path>
    <path d="M10,8.5,9.16,4.3a1,1,0,0,0-1-.8H5.82a1,1,0,0,0-1,.8L4,8.5" fill="none" stroke="#ffffff"
      stroke-linecap="round" stroke-linejoin="round"></path>
  </g>
  <line x1="4.68" y1="8.5" x2="9.32" y2="8.5" fill="none" stroke="#ffffff" stroke-linecap="round"
    stroke-linejoin="round"></line>
</svg>